<svg width="800" height="500" xmlns="http://www.w3.org/2000/svg">
  <!-- Background -->
  <rect width="800" height="500" fill="#f5f5f5"/>
  
  <!-- Document Background -->
  <rect x="100" y="100" width="600" height="350" fill="white" stroke="#333" stroke-width="2"/>
  
  <!-- Tax Form Header -->
  <rect x="120" y="120" width="560" height="60" fill="#1E3F66"/>
  <text x="400" y="160" font-family="Arial" font-size="24" text-anchor="middle" fill="white">SOLAR TAX CREDIT FORM</text>
  
  <!-- Form Lines -->
  <line x1="120" y1="200" x2="680" y2="200" stroke="#333" stroke-width="1"/>
  <line x1="120" y1="240" x2="680" y2="240" stroke="#333" stroke-width="1"/>
  <line x1="120" y1="280" x2="680" y2="280" stroke="#333" stroke-width="1"/>
  <line x1="120" y1="320" x2="680" y2="320" stroke="#333" stroke-width="1"/>
  <line x1="120" y1="360" x2="680" y2="360" stroke="#333" stroke-width="1"/>
  
  <!-- Form Text -->
  <text x="140" y="225" font-family="Arial" font-size="14" fill="#333">1. Solar Installation Cost:</text>
  <text x="600" y="225" font-family="Arial" font-size="14" text-anchor="end" fill="#333">$25,000.00</text>
  
  <text x="140" y="265" font-family="Arial" font-size="14" fill="#333">2. Federal Tax Credit (30%):</text>
  <text x="600" y="265" font-family="Arial" font-size="14" text-anchor="end" fill="#333">$7,500.00</text>
  
  <text x="140" y="305" font-family="Arial" font-size="14" fill="#333">3. State Rebate:</text>
  <text x="600" y="305" font-family="Arial" font-size="14" text-anchor="end" fill="#333">$2,000.00</text>
  
  <text x="140" y="345" font-family="Arial" font-size="14" fill="#333">4. Utility Incentive:</text>
  <text x="600" y="345" font-family="Arial" font-size="14" text-anchor="end" fill="#333">$1,500.00</text>
  
  <text x="140" y="385" font-family="Arial" font-size="14" fill="#333">5. Net Cost After Incentives:</text>
  <text x="600" y="385" font-family="Arial" font-size="14" text-anchor="end" fill="#333">$14,000.00</text>
  
  <!-- Calculator -->
  <rect x="500" y="400" width="100" height="30" fill="#4CAF50" rx="5" ry="5"/>
  <text x="550" y="420" font-family="Arial" font-size="14" text-anchor="middle" fill="white">Calculate</text>
  
  <!-- Dollar Sign -->
  <circle cx="150" cy="400" r="40" fill="#4CAF50"/>
  <text x="150" y="415" font-family="Arial" font-size="40" text-anchor="middle" fill="white">$</text>
  
  <!-- 2023 Year Badge -->
  <circle cx="700" cy="100" r="50" fill="#FDB813"/>
  <text x="700" y="110" font-family="Arial" font-size="24" font-weight="bold" text-anchor="middle" fill="white">2023</text>
  
  <!-- House with Solar Icon -->
  <polygon points="250,400 300,350 350,400" fill="#708090" stroke="#333" stroke-width="1"/>
  <rect x="260" y="400" width="80" height="40" fill="#E8E8E8" stroke="#333" stroke-width="1"/>
  
  <!-- Solar Panel on House -->
  <rect x="270" y="360" width="60" height="20" fill="#1E3F66" stroke="#333" stroke-width="1"/>
  <line x1="285" y1="360" x2="285" y2="380" stroke="#000" stroke-width="0.5"/>
  <line x1="300" y1="360" x2="300" y2="380" stroke="#000" stroke-width="0.5"/>
  <line x1="315" y1="360" x2="315" y2="380" stroke="#000" stroke-width="0.5"/>
  
  <!-- Title at Bottom -->
  <text x="400" y="470" font-family="Arial" font-size="20" text-anchor="middle" fill="#333">2023 Solar Tax Credits and Incentives</text>
</svg>