<svg width="1200" height="800" xmlns="http://www.w3.org/2000/svg">
  <!-- Background gradient -->
  <defs>
    <linearGradient id="skyGradient" x1="0%" y1="0%" x2="0%" y2="100%">
      <stop offset="0%" stop-color="#3498DB" />
      <stop offset="100%" stop-color="#2980B9" />
    </linearGradient>
  </defs>
  
  <!-- Sky background -->
  <rect width="1200" height="800" fill="url(#skyGradient)" />
  
  <!-- Sun -->
  <circle cx="900" cy="150" r="80" fill="#F9A826" />
  <circle cx="900" cy="150" r="90" fill="#F9A826" opacity="0.3" />
  <circle cx="900" cy="150" r="100" fill="#F9A826" opacity="0.1" />
  
  <!-- House with solar panels -->
  <g transform="translate(200, 300)">
    <!-- House structure -->
    <rect x="100" y="200" width="500" height="300" fill="#EEEEEE" />
    
    <!-- Roof with solar panels -->
    <polygon points="100,200 350,50 600,200" fill="#333333" />
    
    <!-- Solar panels -->
    <g>
      <!-- Row 1 -->
      <rect x="150" y="80" width="80" height="50" fill="#2C3E50" stroke="#7F8C8D" stroke-width="2" />
      <rect x="240" y="80" width="80" height="50" fill="#2C3E50" stroke="#7F8C8D" stroke-width="2" />
      <rect x="330" y="80" width="80" height="50" fill="#2C3E50" stroke="#7F8C8D" stroke-width="2" />
      <rect x="420" y="80" width="80" height="50" fill="#2C3E50" stroke="#7F8C8D" stroke-width="2" />
      
      <!-- Row 2 -->
      <rect x="150" y="140" width="80" height="50" fill="#2C3E50" stroke="#7F8C8D" stroke-width="2" />
      <rect x="240" y="140" width="80" height="50" fill="#2C3E50" stroke="#7F8C8D" stroke-width="2" />
      <rect x="330" y="140" width="80" height="50" fill="#2C3E50" stroke="#7F8C8D" stroke-width="2" />
      <rect x="420" y="140" width="80" height="50" fill="#2C3E50" stroke="#7F8C8D" stroke-width="2" />
    </g>
    
    <!-- Door -->
    <rect x="300" y="400" width="100" height="100" fill="#D35400" />
    <circle cx="380" cy="450" r="5" fill="#F1C40F" />
    
    <!-- Windows -->
    <rect x="150" y="250" width="80" height="80" fill="#3498DB" />
    <rect x="470" y="250" width="80" height="80" fill="#3498DB" />
    <line x1="150" y1="290" x2="230" y2="290" stroke="white" stroke-width="2" />
    <line x1="190" y1="250" x2="190" y2="330" stroke="white" stroke-width="2" />
    <line x1="470" y1="290" x2="550" y2="290" stroke="white" stroke-width="2" />
    <line x1="510" y1="250" x2="510" y2="330" stroke="white" stroke-width="2" />
  </g>
  
  <!-- Clouds -->
  <g fill="white" opacity="0.8">
    <ellipse cx="200" cy="100" rx="60" ry="40" />
    <ellipse cx="250" cy="90" rx="70" ry="50" />
    <ellipse cx="300" cy="110" rx="60" ry="40" />
    
    <ellipse cx="600" cy="150" rx="70" ry="40" />
    <ellipse cx="650" cy="140" rx="80" ry="50" />
    <ellipse cx="700" cy="160" rx="70" ry="40" />
  </g>
  
  <!-- Ground -->
  <rect x="0" y="600" width="1200" height="200" fill="#2ECC71" />
  
  <!-- Small trees -->
  <g>
    <circle cx="100" cy="580" r="30" fill="#27AE60" />
    <rect x="95" y="580" width="10" height="30" fill="#8B4513" />
    
    <circle cx="1000" cy="580" r="35" fill="#27AE60" />
    <rect x="995" y="580" width="10" height="30" fill="#8B4513" />
    
    <circle cx="1100" cy="590" r="25" fill="#27AE60" />
    <rect x="1095" y="590" width="10" height="25" fill="#8B4513" />
  </g>
  
  <!-- Sun rays -->
  <g stroke="#F9A826" stroke-width="3" opacity="0.7">
    <line x1="900" y1="50" x2="900" y2="20" />
    <line x1="900" y1="250" x2="900" y2="280" />
    <line x1="800" y1="150" x2="770" y2="150" />
    <line x1="1000" y1="150" x2="1030" y2="150" />
    <line x1="830" y1="80" x2="810" y2="60" />
    <line x1="970" y1="220" x2="990" y2="240" />
    <line x1="830" y1="220" x2="810" y2="240" />
    <line x1="970" y1="80" x2="990" y2="60" />
  </g>
</svg>