<svg width="800" height="500" xmlns="http://www.w3.org/2000/svg">
  <!-- Background -->
  <rect width="800" height="500" fill="#f5f5f5"/>
  
  <!-- Sky -->
  <rect width="800" height="300" fill="#87CEEB"/>
  
  <!-- Sun -->
  <circle cx="650" cy="80" r="60" fill="#F9A826"/>
  <circle cx="650" cy="80" r="50" fill="#FFDB58"/>
  
  <!-- Community Center Building -->
  <g>
    <!-- Main Structure -->
    <rect x="150" y="200" width="500" height="200" fill="#FFFFFF" stroke="#333" stroke-width="2"/>
    
    <!-- Roof -->
    <polygon points="150,200 400,120 650,200" fill="#7F8C8D" stroke="#333" stroke-width="2"/>
    
    <!-- Solar Panels on Roof -->
    <g>
      <!-- Left Side -->
      <rect x="200" y="160" width="60" height="40" fill="#2E4053" stroke="#333" stroke-width="1" transform="skewX(-15)"/>
      <rect x="270" y="150" width="60" height="40" fill="#2E4053" stroke="#333" stroke-width="1" transform="skewX(-15)"/>
      <rect x="340" y="140" width="60" height="40" fill="#2E4053" stroke="#333" stroke-width="1" transform="skewX(-15)"/>
      
      <!-- Right Side -->
      <rect x="400" y="140" width="60" height="40" fill="#2E4053" stroke="#333" stroke-width="1" transform="skewX(15)"/>
      <rect x="470" y="150" width="60" height="40" fill="#2E4053" stroke="#333" stroke-width="1" transform="skewX(15)"/>
      <rect x="540" y="160" width="60" height="40" fill="#2E4053" stroke="#333" stroke-width="1" transform="skewX(15)"/>
    </g>
    
    <!-- Windows -->
    <g>
      <rect x="200" y="250" width="60" height="60" fill="#ADD8E6" stroke="#333" stroke-width="1"/>
      <rect x="300" y="250" width="60" height="60" fill="#ADD8E6" stroke="#333" stroke-width="1"/>
      <rect x="400" y="250" width="60" height="60" fill="#ADD8E6" stroke="#333" stroke-width="1"/>
      <rect x="500" y="250" width="60" height="60" fill="#ADD8E6" stroke="#333" stroke-width="1"/>
      
      <!-- Window Details -->
      <line x1="230" y1="250" x2="230" y2="310" stroke="#333" stroke-width="1"/>
      <line x1="330" y1="250" x2="330" y2="310" stroke="#333" stroke-width="1"/>
      <line x1="430" y1="250" x2="430" y2="310" stroke="#333" stroke-width="1"/>
      <line x1="530" y1="250" x2="530" y2="310" stroke="#333" stroke-width="1"/>
      
      <line x1="200" y1="280" x2="260" y2="280" stroke="#333" stroke-width="1"/>
      <line x1="300" y1="280" x2="360" y2="280" stroke="#333" stroke-width="1"/>
      <line x1="400" y1="280" x2="460" y2="280" stroke="#333" stroke-width="1"/>
      <line x1="500" y1="280" x2="560" y2="280" stroke="#333" stroke-width="1"/>
    </g>
    
    <!-- Main Entrance -->
    <rect x="350" y="330" width="100" height="70" fill="#8B4513" stroke="#333" stroke-width="2"/>
    <rect x="390" y="340" width="20" height="40" fill="#ADD8E6" stroke="#333" stroke-width="1"/>
    <circle cx="380" cy="360" r="5" fill="#FFD700"/>
  </g>
  
  <!-- Ground -->
  <rect width="800" height="100" y="400" fill="#2ECC71"/>
  
  <!-- Pathway -->
  <path d="M350 400 L450 400 L500 500 L300 500 Z" fill="#D3D3D3" stroke="#333" stroke-width="1"/>
  
  <!-- Community Garden -->
  <g>
    <!-- Garden Beds -->
    <rect x="50" y="350" width="80" height="50" fill="#8B4513" stroke="#333" stroke-width="1"/>
    <rect x="50" y="320" width="80" height="20" fill="#2ECC71" stroke="#333" stroke-width="1"/>
    
    <rect x="670" y="350" width="80" height="50" fill="#8B4513" stroke="#333" stroke-width="1"/>
    <rect x="670" y="320" width="80" height="20" fill="#2ECC71" stroke="#333" stroke-width="1"/>
  </g>
  
  <!-- People -->
  <g>
    <!-- Person 1 -->
    <circle cx="100" cy="300" r="15" fill="#F9A826" stroke="#333" stroke-width="1"/> <!-- Head -->
    <line x1="100" y1="315" x2="100" y2="350" stroke="#333" stroke-width="2"/> <!-- Body -->
    <line x1="100" y1="325" x2="80" y2="340" stroke="#333" stroke-width="2"/> <!-- Left Arm -->
    <line x1="100" y1="325" x2="120" y2="340" stroke="#333" stroke-width="2"/> <!-- Right Arm -->
    <line x1="100" y1="350" x2="90" y2="380" stroke="#333" stroke-width="2"/> <!-- Left Leg -->
    <line x1="100" y1="350" x2="110" y2="380" stroke="#333" stroke-width="2"/> <!-- Right Leg -->
    
    <!-- Person 2 -->
    <circle cx="700" cy="300" r="15" fill="#3498DB" stroke="#333" stroke-width="1"/> <!-- Head -->
    <line x1="700" y1="315" x2="700" y2="350" stroke="#333" stroke-width="2"/> <!-- Body -->
    <line x1="700" y1="325" x2="680" y2="340" stroke="#333" stroke-width="2"/> <!-- Left Arm -->
    <line x1="700" y1="325" x2="720" y2="340" stroke="#333" stroke-width="2"/> <!-- Right Arm -->
    <line x1="700" y1="350" x2="690" y2="380" stroke="#333" stroke-width="2"/> <!-- Left Leg -->
    <line x1="700" y1="350" x2="710" y2="380" stroke="#333" stroke-width="2"/> <!-- Right Leg -->
  </g>
  
  <!-- Electric Vehicle Charging Station -->
  <g>
    <rect x="550" y="350" width="20" height="50" fill="#333" stroke="#333" stroke-width="1"/> <!-- Charging Post -->
    <rect x="540" y="340" width="40" height="10" fill="#333" stroke="#333" stroke-width="1"/> <!-- Top -->
    <circle cx="560" cy="345" r="5" fill="#2ECC71"/> <!-- Indicator Light -->
    
    <!-- Car -->
    <rect x="500" y="370" width="40" height="20" fill="#3498DB" stroke="#333" stroke-width="1"/>
    <rect x="510" y="360" width="20" height="10" fill="#ADD8E6" stroke="#333" stroke-width="1"/>
    <circle cx="510" cy="390" r="5" fill="#333" stroke="#333" stroke-width="1"/>
    <circle cx="530" cy="390" r="5" fill="#333" stroke="#333" stroke-width="1"/>
    
    <!-- Charging Cable -->
    <path d="M550 350 Q540 360 540 370" stroke="#333" stroke-width="2" fill="none"/>
  </g>
  
  <!-- Sign -->
  <rect x="200" y="150" width="120" height="40" fill="#3498DB" stroke="#333" stroke-width="1"/>
  <text x="260" y="175" font-family="Arial" font-size="14" text-anchor="middle" fill="#FFFFFF">COMMUNITY CENTER</text>
  
  <!-- Text Label -->
  <text x="400" y="450" font-family="Arial" font-size="24" text-anchor="middle" fill="#333">Community Center Solar Project</text>
  
  <!-- Reflection on panels -->
  <g opacity="0.2">
    <ellipse cx="230" cy="150" rx="20" ry="10" fill="white"/>
    <ellipse cx="300" cy="140" rx="20" ry="10" fill="white"/>
    <ellipse cx="370" cy="130" rx="20" ry="10" fill="white"/>
    <ellipse cx="430" cy="130" rx="20" ry="10" fill="white"/>
    <ellipse cx="500" cy="140" rx="20" ry="10" fill="white"/>
    <ellipse cx="570" cy="150" rx="20" ry="10" fill="white"/>
  </g>
  
  <!-- Sun rays -->
  <g stroke="#FFDB58" stroke-width="2" opacity="0.7">
    <line x1="650" y1="10" x2="650" y2="0" />
    <line x1="720" y1="80" x2="730" y2="80" />
    <line x1="580" y1="80" x2="570" y2="80" />
    <line x1="700" y1="30" x2="710" y2="20" />
    <line x1="600" y1="30" x2="590" y2="20" />
    <line x1="700" y1="130" x2="710" y2="140" />
    <line x1="600" y1="130" x2="590" y2="140" />
  </g>
</svg>