<svg width="400" height="500" xmlns="http://www.w3.org/2000/svg">
  <!-- Background -->
  <rect width="400" height="500" fill="#f4f4f4" />
  
  <!-- Person Silhouette -->
  <g transform="translate(200, 180)">
    <!-- Head -->
    <circle cx="0" cy="0" r="70" fill="#2ECC71" />
    
    <!-- Face Features -->
    <circle cx="-25" cy="-15" r="8" fill="white" /> <!-- Left eye -->
    <circle cx="25" cy="-15" r="8" fill="white" /> <!-- Right eye -->
    <circle cx="-25" cy="-15" r="4" fill="#333" /> <!-- Left pupil -->
    <circle cx="25" cy="-15" r="4" fill="#333" /> <!-- Right pupil -->
    
    <!-- Smile -->
    <path d="M-30,20 Q0,50 30,20" stroke="white" stroke-width="4" fill="transparent" />
    
    <!-- Hair -->
    <path d="M-70,-20 Q-40,-90 0,-70 Q40,-90 70,-20" fill="#111" />
    
    <!-- Glasses -->
    <rect x="-40" y="-20" width="30" height="15" rx="5" ry="5" fill="none" stroke="#333" stroke-width="2" />
    <rect x="10" y="-20" width="30" height="15" rx="5" ry="5" fill="none" stroke="#333" stroke-width="2" />
    <line x1="-10" y1="-12" x2="10" y2="-12" stroke="#333" stroke-width="2" />
    
    <!-- Casual Business Attire -->
    <rect x="-60" y="70" width="120" height="150" fill="#34495E" />
    
    <!-- Shirt -->
    <polygon points="0,70 -30,70 -20,120 0,140 20,120 30,70" fill="#ECF0F1" />
    
    <!-- Shoulders -->
    <rect x="-100" y="70" width="40" height="20" fill="#34495E" rx="10" ry="10" />
    <rect x="60" y="70" width="40" height="20" fill="#34495E" rx="10" ry="10" />
  </g>
  
  <!-- Name Tag -->
  <rect x="100" y="350" width="200" height="50" fill="#2ECC71" rx="5" ry="5" />
  <text x="200" y="380" font-family="Arial" font-size="20" fill="white" text-anchor="middle">Michael Chen</text>
  <text x="200" y="400" font-family="Arial" font-size="14" fill="white" text-anchor="middle">Lead Solar Engineer</text>
</svg>