<svg width="400" height="500" xmlns="http://www.w3.org/2000/svg">
  <!-- Background -->
  <rect width="400" height="500" fill="#f5f5f5" />
  
  <!-- Professional Photo Background -->
  <rect x="50" y="50" width="300" height="300" fill="#e0e0e0" rx="5" ry="5" />
  
  <!-- Person Silhouette -->
  <g transform="translate(200, 180)">
    <!-- Head -->
    <circle cx="0" cy="0" r="70" fill="#2ECC71" />
    
    <!-- Hair -->
    <path d="M-70,-20 Q-40,-90 0,-70 Q40,-90 70,-20" fill="#111" />
    
    <!-- Face Features -->
    <circle cx="-25" cy="-15" r="8" fill="white" /> <!-- Left eye -->
    <circle cx="25" cy="-15" r="8" fill="white" /> <!-- Right eye -->
    <circle cx="-25" cy="-15" r="4" fill="#333" /> <!-- Left pupil -->
    <circle cx="25" cy="-15" r="4" fill="#333" /> <!-- Right pupil -->
    
    <!-- Eyebrows -->
    <path d="M-40,-30 Q-30,-35 -15,-30" stroke="#111" stroke-width="3" fill="transparent" />
    <path d="M40,-30 Q30,-35 15,-30" stroke="#111" stroke-width="3" fill="transparent" />
    
    <!-- Nose -->
    <path d="M0,-15 L5,10 L0,15" stroke="#333" stroke-width="2" fill="transparent" />
    
    <!-- Glasses -->
    <rect x="-40" y="-20" width="30" height="15" rx="5" ry="5" fill="none" stroke="#333" stroke-width="2" />
    <rect x="10" y="-20" width="30" height="15" rx="5" ry="5" fill="none" stroke="#333" stroke-width="2" />
    <line x1="-10" y1="-12" x2="10" y2="-12" stroke="#333" stroke-width="2" />
    
    <!-- Smile -->
    <path d="M-30,20 Q0,40 30,20" stroke="white" stroke-width="4" fill="transparent" />
    
    <!-- Casual Business Attire -->
    <rect x="-60" y="70" width="120" height="150" fill="#34495E" />
    
    <!-- Shirt -->
    <polygon points="0,70 -30,70 -20,120 0,140 20,120 30,70" fill="#ECF0F1" />
    
    <!-- Shoulders -->
    <rect x="-100" y="70" width="40" height="20" fill="#34495E" rx="10" ry="10" />
    <rect x="60" y="70" width="40" height="20" fill="#34495E" rx="10" ry="10" />
  </g>
  
  <!-- Professional Details -->
  <rect x="50" y="370" width="300" height="80" fill="#2ECC71" rx="5" ry="5" />
  <text x="200" y="405" font-family="Arial" font-size="22" font-weight="bold" fill="white" text-anchor="middle">Michael Chen</text>
  <text x="200" y="435" font-family="Arial" font-size="16" fill="white" text-anchor="middle">Lead Solar Engineer</text>
</svg>